<?xml version="1.0" ?><!DOCTYPE svg  PUBLIC '-//W3C//DTD SVG 1.1//EN'  'http://www.w3.org/Graphics/SVG/1.1/DTD/svg11.dtd'><svg enable-background="new 0 0 24 24" height="24px" id="Layer_1" version="1.1" viewBox="0 0 24 24" width="24px" xml:space="preserve" xmlns="http://www.w3.org/2000/svg" xmlns:xlink="http://www.w3.org/1999/xlink"><path d="M12,0C7.2,0,2.9,2.1,0,5.4V18c0,0.6,0.4,1,1,1h6v-0.8l0.8-0.8l1.4,1.4l-1.4,1.4L7,19.5v1.4l0.1,0.1L7,21v1.4l0.8-0.8L9.2,23  l-0.9,1h1.4l0.2-0.2l0.2,0.2h1.4l-0.9-1l1.4-1.4l1.4,1.4l-0.9,1h1.4l0.2-0.2l0.2,0.2h1.4l-0.9-1l1.4-1.4l0.8,0.8V21l-0.1-0.1  l0.1-0.1v-1.4l-0.8,0.8l-1.4-1.4l1.4-1.4l0.8,0.8V19h6c0.6,0,1-0.4,1-1V5.4C21.1,2.1,16.8,0,12,0z M8.5,16.7l1.4-1.4l1.4,1.4  l-1.4,1.4L8.5,16.7z M16,13H8V8h8V13z M13,15l-1,1l-1-1H13z M9.9,22.3l-1.4-1.4l1.4-1.4l1.4,1.4L9.9,22.3z M10.6,18.8l1.4-1.4  l1.4,1.4L12,20.2L10.6,18.8z M15.5,20.9l-1.4,1.4l-1.4-1.4l1.4-1.4L15.5,20.9z M14.1,18.1l-1.4-1.4l1.4-1.4l1.4,1.4L14.1,18.1z   M22,17h-5v-0.3l-0.1-0.1l0.1-0.1v-1.4L16.2,16l-1-1H17c0.6,0,1-0.4,1-1s-0.4-1-1-1V7H7v6c-0.6,0-1,0.4-1,1s0.4,1,1,1h1.7l-1,1  L7,15.2v1.4l0.1,0.1L7,16.7V17H2V6.2C4.5,3.6,8.1,2,12,2s7.5,1.6,10,4.2V17z"/></svg>