<?xml version="1.0" ?><!DOCTYPE svg  PUBLIC '-//W3C//DTD SVG 1.1//EN'  'http://www.w3.org/Graphics/SVG/1.1/DTD/svg11.dtd'><svg enable-background="new 0 0 24 24" height="24px" id="Layer_1" version="1.1" viewBox="0 0 24 24" width="24px" xml:space="preserve" xmlns="http://www.w3.org/2000/svg" xmlns:xlink="http://www.w3.org/1999/xlink"><g><path d="M12,0C5.4,0,0,5.4,0,12s5.4,12,12,12s12-5.4,12-12S18.6,0,12,0z M12,22C6.5,22,2,17.5,2,12S6.5,2,12,2s10,4.5,10,10   S17.5,22,12,22z"/><path d="M13,5c-1.1,0-2,0.9-2,2s0.9,2,2,2s2-0.9,2-2S14.1,5,13,5z M13,8c-0.6,0-1-0.4-1-1s0.4-1,1-1s1,0.4,1,1S13.6,8,13,8z"/><path d="M17,9c-1.1,0-2,0.9-2,2s0.9,2,2,2s2-0.9,2-2S18.1,9,17,9z M17,12c-0.6,0-1-0.4-1-1s0.4-1,1-1s1,0.4,1,1S17.6,12,17,12z"/><path d="M12,10c-1.1,0-2,0.9-2,2s0.9,2,2,2s2-0.9,2-2S13.1,10,12,10z M12,13c-0.6,0-1-0.4-1-1s0.4-1,1-1s1,0.4,1,1S12.6,13,12,13z"/></g></svg>