<?xml version="1.0" ?><!DOCTYPE svg  PUBLIC '-//W3C//DTD SVG 1.1//EN'  'http://www.w3.org/Graphics/SVG/1.1/DTD/svg11.dtd'><svg enable-background="new 0 0 24 24" height="24px" id="Layer_1" version="1.1" viewBox="0 0 24 24" width="24px" xml:space="preserve" xmlns="http://www.w3.org/2000/svg" xmlns:xlink="http://www.w3.org/1999/xlink"><path d="M12,0C5.4,0,0,5.4,0,12s5.4,12,12,12s12-5.4,12-12S18.6,0,12,0z M9.2,2.4C9.7,3.2,10,4,10,5c0,2.8-2.2,5-5,5  c-1,0-1.8-0.3-2.6-0.8C3.3,5.9,5.9,3.3,9.2,2.4z M2,12c0-0.6,0.1-1.2,0.2-1.7C3,10.7,4,11,5,11c3.3,0,6-2.7,6-6c0-1-0.3-2-0.7-2.8  C10.8,2.1,11.4,2,12,2c5.5,0,10,4.5,10,10c0,0.5-0.1,1.1-0.1,1.6c-1-0.7-2.1-1.1-3.4-1.1c-3.3,0-6,2.7-6,6c0,1.3,0.4,2.4,1,3.4  C13,21.9,12.5,22,12,22C6.5,22,2,17.5,2,12z M14.6,21.6c-0.7-0.9-1.1-1.9-1.1-3.1c0-2.8,2.2-5,5-5c1.2,0,2.3,0.4,3.1,1.1  C20.7,18,18,20.7,14.6,21.6z"/></svg>